<svg xmlns="http://www.w3.org/2000/svg" width="91" height="100" viewBox="0 0 91 100" fill="none">
    <path d="M51.4977 91.4638C48.2572 93.4303 46.575 99.7891 46.575 99.7891C46.575 99.7891 45.7457 100.394 45.4919 99.5542C44.065 94.6755 40.8688 91.6294 40.8688 91.6294C17.914 89.303 0 69.7313 0 45.9269C0 20.5625 20.3665 0 45.4919 0C70.632 0 91 20.5625 91 45.9269C91 69.251 73.7987 88.5065 51.4977 91.4638Z"
          fill="black"/>
    <path d="M32.8838 36V58H26.6751V49.42H18.2087V58H12V36H18.2087V44.2657H26.6751V36H32.8838Z" fill="white"/>
    <path d="M59.9502 40.9343H48.5751V58H42.4604V40.9343H30.5529V36H59.9502V40.9343Z" fill="white"/>
    <path d="M67.0216 49.5771H64.1995V58H58.0221V36H64.1995V44.5486H67.1784L72.415 36H78.9373L72.0701 46.6229L79 58H72.0074L67.0216 49.5771Z"
          fill="white"/>
</svg>